<svg id="Capa_1" enable-background="new 0 0 512 512" height="512" viewBox="0 0 512 512" width="512" xmlns="http://www.w3.org/2000/svg"><g fill="#fe9901"><path d="m130.778 285.207c-20.325-26.485-32.406-59.501-32.406-95.264 0-35.761 12.084-68.774 32.407-95.258l-10.693-10.68c-22.996 29.272-36.714 66.045-36.714 105.938 0 39.895 13.72 76.668 36.719 105.937z"/><path d="m395.021 295.889c22.998-29.272 36.711-66.051 36.711-105.945s-13.718-76.666-36.714-105.938l-10.693 10.68c20.324 26.484 32.408 59.497 32.408 95.258 0 35.763-12.083 68.776-32.41 95.26z"/><path d="m375.962 84.665 10.624-10.61c-31.891-34.879-77.927-56.818-129.034-56.818s-97.143 21.941-129.034 56.818l10.624 10.61c29.163-32.163 71.44-52.429 118.41-52.429s89.248 20.266 118.41 52.429z"/><path d="m139.151 295.217-10.624 10.609c17.413 19.04 39.037 34.228 63.404 44.092v-16.297c-20.195-9.09-38.134-22.253-52.78-38.404z"/><path d="m375.96 295.224c-15.041 16.585-33.569 30.007-54.431 39.116v16.245c25.042-9.84 47.251-25.28 65.055-44.751z"/></g><path d="m415.503 314.932-50.509-50.445c-2.931-2.928-7.68-2.925-10.606.007-2.927 2.931-2.924 7.68.007 10.606l51.066 51.001c4.371-2.802 7.468-6.276 10.042-11.169z" fill="#fb8801"/><path d="m150.11 264.486-52.494 52.428c2.74 4.516 6.112 7.711 10.871 10.342l52.223-52.156c2.931-2.927 2.934-7.676.007-10.606-2.928-2.933-7.677-2.934-10.607-.008z" fill="#fb8801"/><path d="m87.241 379.891c-1.778 0-3.332-1.183-3.808-2.891-6.837-24.715-11.599-29.462-36.363-36.286-1.712-.472-2.899-2.027-2.899-3.797 0-1.772 1.187-3.329 2.899-3.799 24.764-6.824 29.526-11.573 36.363-36.285.475-1.711 2.029-2.893 3.808-2.893 1.775 0 3.332 1.182 3.805 2.893 6.839 24.712 11.597 29.461 36.365 36.285 1.713.47 2.897 2.026 2.897 3.799 0 1.77-1.184 3.325-2.897 3.797-24.768 6.824-29.525 11.571-36.365 36.286-.473 1.708-2.029 2.891-3.805 2.891z" fill="#ffdc48"/><path d="m65.547 326.406c-4.569 2.515-10.475 4.508-18.476 6.712-1.712.47-2.899 2.026-2.899 3.799 0 1.77 1.187 3.325 2.899 3.797 24.764 6.824 29.526 11.571 36.363 36.286.475 1.708 2.029 2.891 3.808 2.891 1.775 0 3.332-1.183 3.805-2.891 2.207-7.973 4.199-13.859 6.714-18.416-6.092-20.896-11.298-26.1-32.214-32.178z" fill="#fac600"/><path d="m424.762 379.891c-1.779 0-3.333-1.183-3.809-2.891-6.837-24.715-11.598-29.462-36.362-36.286-1.712-.472-2.899-2.027-2.899-3.797 0-1.772 1.187-3.329 2.899-3.799 24.764-6.824 29.525-11.573 36.362-36.285.476-1.711 2.03-2.893 3.809-2.893 1.775 0 3.331 1.182 3.804 2.893 6.839 24.712 11.598 29.461 36.365 36.285 1.714.47 2.897 2.026 2.897 3.799 0 1.77-1.183 3.325-2.897 3.797-24.767 6.824-29.526 11.571-36.365 36.286-.473 1.708-2.029 2.891-3.804 2.891z" fill="#ffdc48"/><path d="m403.067 326.406c-4.569 2.515-10.475 4.508-18.476 6.712-1.712.47-2.899 2.026-2.899 3.799 0 1.77 1.187 3.325 2.899 3.797 24.764 6.824 29.525 11.571 36.362 36.286.476 1.708 2.03 2.891 3.809 2.891 1.775 0 3.331-1.183 3.804-2.891 2.206-7.973 4.199-13.859 6.714-18.416-6.091-20.896-11.297-26.1-32.213-32.178z" fill="#fac600"/><path d="m405.46 53.791-51.066 51.001c-2.931 2.927-2.934 7.676-.007 10.606 1.465 1.467 3.386 2.2 5.307 2.2 1.918 0 3.836-.731 5.3-2.193l50.509-50.445c-2.574-4.894-5.671-8.367-10.043-11.169z" fill="#fb8801"/><path d="m108.487 52.635c-4.759 2.632-8.131 5.827-10.871 10.342l52.494 52.429c1.464 1.463 3.382 2.193 5.3 2.193 1.921 0 3.842-.733 5.307-2.2 2.927-2.931 2.924-7.68-.007-10.606z" fill="#fb8801"/><path d="m87.241 0c-1.778 0-3.332 1.184-3.808 2.892-6.837 24.713-11.599 29.462-36.363 36.285-1.712.474-2.899 2.027-2.899 3.798 0 1.772 1.187 3.329 2.899 3.799 24.764 6.824 29.526 11.572 36.363 36.285.475 1.711 2.029 2.893 3.808 2.893 1.775 0 3.332-1.182 3.805-2.893 6.839-24.713 11.597-29.461 36.365-36.285 1.713-.47 2.897-2.026 2.897-3.799 0-1.771-1.184-3.324-2.897-3.798-24.768-6.823-29.525-11.572-36.365-36.285-.473-1.708-2.029-2.892-3.805-2.892z" fill="#ffdc48"/><path d="m65.547 32.466c-4.57 2.515-10.475 4.507-18.476 6.711-1.712.474-2.899 2.027-2.899 3.798 0 1.772 1.187 3.329 2.899 3.799 24.764 6.824 29.526 11.572 36.363 36.285.475 1.711 2.029 2.893 3.808 2.893 1.775 0 3.332-1.182 3.805-2.893 2.207-7.972 4.199-13.857 6.714-18.416-6.092-20.895-11.298-26.099-32.214-32.177z" fill="#fac600"/><path d="m424.762 0c-1.779 0-3.333 1.184-3.809 2.892-6.837 24.713-11.598 29.462-36.362 36.285-1.712.474-2.899 2.027-2.899 3.798 0 1.772 1.187 3.329 2.899 3.799 24.764 6.824 29.525 11.572 36.362 36.285.476 1.711 2.03 2.893 3.809 2.893 1.775 0 3.331-1.182 3.804-2.893 6.839-24.713 11.598-29.461 36.365-36.285 1.714-.47 2.897-2.026 2.897-3.799 0-1.771-1.183-3.324-2.897-3.798-24.767-6.823-29.526-11.572-36.365-36.285-.473-1.708-2.029-2.892-3.804-2.892z" fill="#ffdc48"/><path d="m403.067 32.466c-4.569 2.515-10.474 4.507-18.476 6.711-1.712.474-2.899 2.027-2.899 3.798 0 1.772 1.187 3.329 2.899 3.799 24.764 6.824 29.525 11.572 36.362 36.285.476 1.711 2.03 2.893 3.809 2.893 1.775 0 3.331-1.182 3.804-2.893 2.206-7.972 4.199-13.857 6.714-18.415-6.091-20.896-11.297-26.1-32.213-32.178z" fill="#fac600"/><path d="m211.565 263.729v55.253h90.331v-56.253h-27.909v-35.445c0-23.783 22.749-25.763 23.717-25.836l16.014.003-22.675-22.478c-2.913-2.887-4.549-6.708-4.667-10.8-2.358 1.345-5.084 2.126-7.995 2.126h-4.558c-8.874 0-16.093-7.152-16.093-15.943h-2v4.816c0 8.791-7.219 15.942-16.093 15.942h-4.558c-8.874 0-16.093-7.151-16.093-15.942h-2v12.037c0 8.79-7.219 15.941-16.093 15.941h-4.558c-8.874 0-16.093-7.151-16.093-15.941h-1v29.648c.001 25.91 12.756 48.826 32.323 62.872z" fill="#fed2a4"/><path d="m286.43 169.285c-.051-.521-.077-1.048-.077-1.579 0-4.27 1.665-8.273 4.69-11.273l3.223-3.193c3.026-3 7.068-4.651 11.382-4.651 4.313 0 8.357 1.651 11.383 4.651l17.115 16.964c.039-.463.072-.928.072-1.4v-50.825c0-9.319-7.693-16.942-17.093-16.942h-4.558c-9.401 0-17.093 7.623-17.093 16.942v-14.447c0-9.317-7.691-16.941-17.092-16.941h-4.558c-9.401 0-17.093 7.623-17.093 16.941v4.816c0-9.316-7.692-16.943-17.093-16.943h-4.558c-9.402 0-17.093 7.627-17.093 16.943v12.038c0-9.318-7.691-16.942-17.093-16.942h-4.558c-9.402 0-17.093 7.624-17.093 16.942v50.824c0 9.319 7.691 16.941 17.093 16.941h4.558c9.402 0 17.093-7.622 17.093-16.941v-12.037c0 9.319 7.691 16.942 17.093 16.942h4.558c9.4 0 17.093-7.623 17.093-16.942v-4.816c0 9.319 7.692 16.943 17.093 16.943h4.558c2.905 0 5.646-.733 8.048-2.015z" fill="#f6a96c"/><path d="m263.837 318.982v-34.77c0-4.143-3.358-7.5-7.5-7.5s-7.5 3.357-7.5 7.5v34.77z" fill="#ffbd86"/><path d="m217.986 171.21c0 9.319-7.691 16.941-17.093 16.941h-4.558c-9.402 0-17.093-7.622-17.093-16.941v-50.824c0-9.318 7.691-16.942 17.093-16.942h4.558c9.402 0 17.093 7.624 17.093 16.942z" fill="#ffbd86"/><path d="m194.478 171.21v-50.824c0-7.471 4.949-13.843 11.754-16.079-1.683-.553-3.474-.863-5.338-.863h-4.558c-9.402 0-17.093 7.624-17.093 16.942v50.824c0 9.319 7.691 16.941 17.093 16.941h4.558c1.864 0 3.656-.31 5.338-.863-6.806-2.236-11.754-8.606-11.754-16.078z" fill="#f6a96c"/><path d="m256.73 159.173c0 9.319-7.692 16.942-17.093 16.942h-4.558c-9.402 0-17.093-7.623-17.093-16.942v-50.825c0-9.316 7.691-16.943 17.093-16.943h4.558c9.4 0 17.093 7.627 17.093 16.943z" fill="#ffbd86"/><path d="m233.221 159.173v-50.825c0-7.47 4.949-13.842 11.754-16.079-1.683-.554-3.474-.864-5.337-.864h-4.558c-9.402 0-17.093 7.627-17.093 16.943v50.825c0 9.319 7.691 16.942 17.093 16.942h4.558c1.864 0 3.655-.311 5.337-.863-6.806-2.236-11.754-8.607-11.754-16.079z" fill="#f6a96c"/><path d="m271.964 154.356v-50.825c0-7.471 4.949-13.841 11.755-16.077-1.683-.553-3.475-.863-5.338-.863h-4.558c-9.401 0-17.093 7.623-17.093 16.941v50.825c0 9.319 7.692 16.943 17.093 16.943h4.558c1.863 0 3.655-.311 5.338-.863-6.805-2.238-11.755-8.609-11.755-16.081z" fill="#ea9b58"/><path d="m305.648 148.589c1.749 0 3.449.285 5.06.808v-31.418c0-7.472 4.949-13.843 11.754-16.079-1.683-.553-3.474-.863-5.338-.863h-4.558c-9.401 0-17.093 7.623-17.093 16.942v34.182c2.856-2.313 6.412-3.572 10.175-3.572z" fill="#ea9b58"/><path d="m353.994 188.469-36.258-35.938c-6.648-6.589-17.526-6.589-24.173 0l-3.224 3.193c-6.647 6.591-6.647 17.372 0 23.96l20.95 20.768h-13.659s-24.644 1.806-24.644 26.833v36.445h28.909l52.098-51.3c6.649-6.592 6.648-17.373.001-23.961z" fill="#ffbd86"/><path d="m317.465 317.982h-121.224c-2.793-.008-5.302 2.27-5.31 5.062v76.063c-.008 2.791 2.271 5.423 5.064 5.431h22.266v-31.246c0-3.584 2.916-6.5 6.5-6.5s6.5 2.916 6.5 6.5v31.246h19.791v-31.246c0-3.584 2.916-6.5 6.5-6.5s6.5 2.916 6.5 6.5v31.246h19.791v-31.246c0-3.584 2.916-6.5 6.5-6.5s6.5 2.916 6.5 6.5v31.246h20.376c2.793.008 5.302-2.269 5.309-5.061v-76.067c.008-2.791-2.27-5.42-5.063-5.428z" fill="#d4f2f6"/><path d="m217.261 373.291c0-4.143 3.358-7.5 7.5-7.5.592 0 1.165.076 1.717.205v-42.952c.008-2.792 2.517-5.069 5.31-5.062h-35.547c-2.793-.008-5.302 2.27-5.31 5.062v76.063c-.008 2.791 2.271 5.423 5.064 5.431h21.266z" fill="#a6e7f0"/><path d="m224.761 465.053c-4.142 0-7.5-3.357-7.5-7.5v-84.262c0-4.143 3.358-7.5 7.5-7.5s7.5 3.357 7.5 7.5v84.262c0 4.142-3.358 7.5-7.5 7.5z" fill="#08a9f1"/><path d="m257.552 512c-4.142 0-7.5-3.357-7.5-7.5v-131.209c0-4.143 3.358-7.5 7.5-7.5s7.5 3.357 7.5 7.5v131.209c0 4.143-3.358 7.5-7.5 7.5z" fill="#08a9f1"/><path d="m290.343 465.053c-4.142 0-7.5-3.357-7.5-7.5v-84.262c0-4.143 3.358-7.5 7.5-7.5s7.5 3.357 7.5 7.5v84.262c0 4.142-3.358 7.5-7.5 7.5z" fill="#08a9f1"/></svg>