<svg id="Layer_5" data-name="Layer 5" xmlns="http://www.w3.org/2000/svg" viewBox="0 0 496 496"><defs><style>.cls-1{fill:#00984a;}</style></defs><path class="cls-1" d="M485.82,173.21,456,165.75l-16-4-16-4-16-4V134.07a158.61,158.61,0,0,0,79.72-36.44l7.42-6.35a25.42,25.42,0,0,0,0-38.57l-7.42-6.34a159.37,159.37,0,0,0-207.44,0l-7.42,6.35a25.42,25.42,0,0,0,0,38.57l7.41,6.34a159,159,0,0,0,44.46,26.87l-63.51,78.44a31.41,31.41,0,0,0-31.84,3.14L199.63,181.3A56,56,0,1,0,112,191.13l-46.66,61A39.56,39.56,0,0,0,48,248a40.46,40.46,0,1,0,30.05,13.88l46.66-61a55.68,55.68,0,0,0,64.68-7.29l29.77,24.81A31.58,31.58,0,0,0,216,232a32,32,0,1,0,57.64-18.95L340.87,130A159.78,159.78,0,0,0,360,134.07v51.76A42.64,42.64,0,0,0,332.94,176a20.95,20.95,0,0,0-18.73,30.31l9.56,19.13a40.14,40.14,0,0,1,4.23,17.9v35.83a56.28,56.28,0,0,0,12.26,35l17.84,22.29L344,357.58V488H272V359.42a21,21,0,0,0,13.79-29.73l-19.05-38.12a21,21,0,0,0-37.48,0l-19,38.11A21,21,0,0,0,224,359.42V488H176V303.42a21,21,0,0,0,13.79-29.73l-19-38.11a21,21,0,0,0-37.48,0l-19,38.11A21,21,0,0,0,128,303.42V488H72V423.42a21,21,0,0,0,13.79-29.73L66.74,355.57a21,21,0,0,0-37.48,0l-19,38.11A21,21,0,0,0,24,423.42V488H8v16H504V488H488V357.58l-14.1-21.15,17.84-22.29a56.23,56.23,0,0,0,12.26-35V196.5a24,24,0,0,0-18.18-23.29ZM48,312a24,24,0,1,1,24-24A24,24,0,0,1,48,312ZM152,192a40,40,0,1,1,40-40A40,40,0,0,1,152,192Zm96,56a16,16,0,1,1,16-16A16,16,0,0,1,248,248ZM360,88v16a40,40,0,1,1,48,0V88a24,24,0,0,0-48,0ZM484.72,64.86a9.41,9.41,0,0,1,0,14.27l-7.43,6.35A142.44,142.44,0,0,1,419,115.63a55.82,55.82,0,0,0,.21-87.15,143.3,143.3,0,0,1,58.15,30.05ZM283.28,79.14a9.41,9.41,0,0,1,0-14.27l7.42-6.35a143.15,143.15,0,0,1,58.15-30,55.81,55.81,0,0,0,.2,87.15,142.44,142.44,0,0,1-58.35-30.16ZM228.94,344a4.94,4.94,0,0,1-4.42-7.15l19.06-38.11c1.68-3.39,7.16-3.38,8.84,0l19.05,38.11a4.8,4.8,0,0,1,.53,2.21,5,5,0,0,1-4.94,4.94H256V488H240V344Zm-96-56a4.94,4.94,0,0,1-4.42-7.15l19.06-38.11c1.68-3.38,7.16-3.37,8.84,0l19.05,38.12a4.73,4.73,0,0,1,.53,2.2,5,5,0,0,1-4.94,4.94H160V488H144V288Zm-104,120a4.94,4.94,0,0,1-4.42-7.15l19.06-38.11c1.68-3.39,7.16-3.38,8.84,0l19,38.11a4.8,4.8,0,0,1,.53,2.21A5,5,0,0,1,67.06,408H56v80H40V408ZM360,488V362.42L372.28,344h87.44L472,362.42V488ZM488,279.17a40.07,40.07,0,0,1-8.77,25L460.15,328h-88.3l-19.08-23.85a40.09,40.09,0,0,1-8.77-25V243.34a56.36,56.36,0,0,0-5.91-25.05l-9.56-19.13a4.94,4.94,0,0,1,4.41-7.16A27.09,27.09,0,0,1,360,219.06V256h16V88a8,8,0,0,1,16,0V256h16V170.25l16,4V256h16V178.25l16,4V256h16V186.25l9.94,2.49A8,8,0,0,1,488,196.5Z" transform="translate(-8 -8)"/><path class="cls-1" d="M152,128a24,24,0,1,0,24,24A24,24,0,0,0,152,128Zm0,32a8,8,0,1,1,8-8A8,8,0,0,1,152,160Z" transform="translate(-8 -8)"/></svg>